<mxfile host="app.diagrams.net" modified="2024-09-09T14:53:45.187Z" agent="Mozilla/5.0 (Windows NT 10.0; Win64; x64) AppleWebKit/537.36 (KHTML, like Gecko) Chrome/128.0.0.0 Safari/537.36" etag="n91kETSyD1a9mQvdpeRJ" version="24.2.5" type="github">
  <diagram name="Страница — 1" id="G5GduyvJdxnfK6viKC0z">
    <mxGraphModel dx="2261" dy="738" grid="1" gridSize="10" guides="1" tooltips="1" connect="1" arrows="1" fold="1" page="1" pageScale="1" pageWidth="827" pageHeight="1169" math="0" shadow="0">
      <root>
        <mxCell id="0" />
        <mxCell id="1" parent="0" />
        <mxCell id="SbwJLex9TxIHxZs_hP6--11" style="rounded=0;orthogonalLoop=1;jettySize=auto;html=1;" edge="1" parent="1" source="SbwJLex9TxIHxZs_hP6--1" target="SbwJLex9TxIHxZs_hP6--2">
          <mxGeometry relative="1" as="geometry" />
        </mxCell>
        <mxCell id="SbwJLex9TxIHxZs_hP6--12" style="rounded=0;orthogonalLoop=1;jettySize=auto;html=1;" edge="1" parent="1" source="SbwJLex9TxIHxZs_hP6--1" target="SbwJLex9TxIHxZs_hP6--4">
          <mxGeometry relative="1" as="geometry" />
        </mxCell>
        <mxCell id="SbwJLex9TxIHxZs_hP6--1" value="Факультет" style="rounded=0;whiteSpace=wrap;html=1;" vertex="1" parent="1">
          <mxGeometry x="10" y="60" width="120" height="60" as="geometry" />
        </mxCell>
        <mxCell id="SbwJLex9TxIHxZs_hP6--13" style="edgeStyle=orthogonalEdgeStyle;rounded=0;orthogonalLoop=1;jettySize=auto;html=1;" edge="1" parent="1" source="SbwJLex9TxIHxZs_hP6--2" target="SbwJLex9TxIHxZs_hP6--3">
          <mxGeometry relative="1" as="geometry" />
        </mxCell>
        <mxCell id="SbwJLex9TxIHxZs_hP6--2" value="Группа" style="rounded=0;whiteSpace=wrap;html=1;" vertex="1" parent="1">
          <mxGeometry x="-200" y="210" width="120" height="60" as="geometry" />
        </mxCell>
        <mxCell id="SbwJLex9TxIHxZs_hP6--16" style="edgeStyle=orthogonalEdgeStyle;rounded=0;orthogonalLoop=1;jettySize=auto;html=1;" edge="1" parent="1" source="SbwJLex9TxIHxZs_hP6--3" target="SbwJLex9TxIHxZs_hP6--15">
          <mxGeometry relative="1" as="geometry" />
        </mxCell>
        <mxCell id="SbwJLex9TxIHxZs_hP6--3" value="Студент" style="rounded=0;whiteSpace=wrap;html=1;" vertex="1" parent="1">
          <mxGeometry x="-200" y="320" width="120" height="60" as="geometry" />
        </mxCell>
        <mxCell id="SbwJLex9TxIHxZs_hP6--14" style="edgeStyle=orthogonalEdgeStyle;rounded=0;orthogonalLoop=1;jettySize=auto;html=1;entryX=0.5;entryY=0;entryDx=0;entryDy=0;" edge="1" parent="1" source="SbwJLex9TxIHxZs_hP6--4" target="SbwJLex9TxIHxZs_hP6--5">
          <mxGeometry relative="1" as="geometry" />
        </mxCell>
        <mxCell id="SbwJLex9TxIHxZs_hP6--23" style="edgeStyle=orthogonalEdgeStyle;rounded=0;orthogonalLoop=1;jettySize=auto;html=1;" edge="1" parent="1" source="SbwJLex9TxIHxZs_hP6--4" target="SbwJLex9TxIHxZs_hP6--7">
          <mxGeometry relative="1" as="geometry" />
        </mxCell>
        <mxCell id="SbwJLex9TxIHxZs_hP6--4" value="Кафедра" style="rounded=0;whiteSpace=wrap;html=1;" vertex="1" parent="1">
          <mxGeometry x="210" y="210" width="120" height="60" as="geometry" />
        </mxCell>
        <mxCell id="SbwJLex9TxIHxZs_hP6--17" style="edgeStyle=orthogonalEdgeStyle;rounded=0;orthogonalLoop=1;jettySize=auto;html=1;" edge="1" parent="1" source="SbwJLex9TxIHxZs_hP6--5" target="SbwJLex9TxIHxZs_hP6--10">
          <mxGeometry relative="1" as="geometry" />
        </mxCell>
        <mxCell id="SbwJLex9TxIHxZs_hP6--19" style="edgeStyle=orthogonalEdgeStyle;rounded=0;orthogonalLoop=1;jettySize=auto;html=1;entryX=1;entryY=0.5;entryDx=0;entryDy=0;" edge="1" parent="1" source="SbwJLex9TxIHxZs_hP6--5" target="SbwJLex9TxIHxZs_hP6--8">
          <mxGeometry relative="1" as="geometry" />
        </mxCell>
        <mxCell id="SbwJLex9TxIHxZs_hP6--20" style="edgeStyle=orthogonalEdgeStyle;rounded=0;orthogonalLoop=1;jettySize=auto;html=1;entryX=1;entryY=0.5;entryDx=0;entryDy=0;" edge="1" parent="1" source="SbwJLex9TxIHxZs_hP6--5" target="SbwJLex9TxIHxZs_hP6--9">
          <mxGeometry relative="1" as="geometry" />
        </mxCell>
        <mxCell id="SbwJLex9TxIHxZs_hP6--5" value="Преподаватель" style="rounded=0;whiteSpace=wrap;html=1;" vertex="1" parent="1">
          <mxGeometry x="210" y="320" width="120" height="60" as="geometry" />
        </mxCell>
        <mxCell id="SbwJLex9TxIHxZs_hP6--25" style="edgeStyle=orthogonalEdgeStyle;rounded=0;orthogonalLoop=1;jettySize=auto;html=1;" edge="1" parent="1" source="SbwJLex9TxIHxZs_hP6--6" target="SbwJLex9TxIHxZs_hP6--5">
          <mxGeometry relative="1" as="geometry" />
        </mxCell>
        <mxCell id="SbwJLex9TxIHxZs_hP6--26" style="edgeStyle=orthogonalEdgeStyle;rounded=0;orthogonalLoop=1;jettySize=auto;html=1;entryX=0.5;entryY=0;entryDx=0;entryDy=0;" edge="1" parent="1" source="SbwJLex9TxIHxZs_hP6--6" target="SbwJLex9TxIHxZs_hP6--2">
          <mxGeometry relative="1" as="geometry">
            <Array as="points">
              <mxPoint x="550" y="350" />
              <mxPoint x="550" y="20" />
              <mxPoint x="-140" y="20" />
            </Array>
          </mxGeometry>
        </mxCell>
        <mxCell id="SbwJLex9TxIHxZs_hP6--6" value="Учебные дисциплины" style="rounded=0;whiteSpace=wrap;html=1;" vertex="1" parent="1">
          <mxGeometry x="390" y="320" width="120" height="60" as="geometry" />
        </mxCell>
        <mxCell id="SbwJLex9TxIHxZs_hP6--24" style="edgeStyle=orthogonalEdgeStyle;rounded=0;orthogonalLoop=1;jettySize=auto;html=1;" edge="1" parent="1" source="SbwJLex9TxIHxZs_hP6--7" target="SbwJLex9TxIHxZs_hP6--6">
          <mxGeometry relative="1" as="geometry" />
        </mxCell>
        <mxCell id="SbwJLex9TxIHxZs_hP6--7" value="Учебный план" style="rounded=0;whiteSpace=wrap;html=1;" vertex="1" parent="1">
          <mxGeometry x="390" y="210" width="120" height="60" as="geometry" />
        </mxCell>
        <mxCell id="SbwJLex9TxIHxZs_hP6--8" value="Экзамены" style="rounded=0;whiteSpace=wrap;html=1;" vertex="1" parent="1">
          <mxGeometry y="430" width="120" height="60" as="geometry" />
        </mxCell>
        <mxCell id="SbwJLex9TxIHxZs_hP6--9" value="Зачеты" style="rounded=0;whiteSpace=wrap;html=1;" vertex="1" parent="1">
          <mxGeometry y="525" width="120" height="60" as="geometry" />
        </mxCell>
        <mxCell id="SbwJLex9TxIHxZs_hP6--18" style="edgeStyle=orthogonalEdgeStyle;rounded=0;orthogonalLoop=1;jettySize=auto;html=1;entryX=1;entryY=0.5;entryDx=0;entryDy=0;" edge="1" parent="1" source="SbwJLex9TxIHxZs_hP6--10" target="SbwJLex9TxIHxZs_hP6--3">
          <mxGeometry relative="1" as="geometry" />
        </mxCell>
        <mxCell id="SbwJLex9TxIHxZs_hP6--10" value="Дипломные работы" style="rounded=0;whiteSpace=wrap;html=1;" vertex="1" parent="1">
          <mxGeometry y="320" width="120" height="60" as="geometry" />
        </mxCell>
        <mxCell id="SbwJLex9TxIHxZs_hP6--21" style="edgeStyle=orthogonalEdgeStyle;rounded=0;orthogonalLoop=1;jettySize=auto;html=1;" edge="1" parent="1" source="SbwJLex9TxIHxZs_hP6--15" target="SbwJLex9TxIHxZs_hP6--8">
          <mxGeometry relative="1" as="geometry" />
        </mxCell>
        <mxCell id="SbwJLex9TxIHxZs_hP6--22" style="edgeStyle=orthogonalEdgeStyle;rounded=0;orthogonalLoop=1;jettySize=auto;html=1;" edge="1" parent="1" source="SbwJLex9TxIHxZs_hP6--15" target="SbwJLex9TxIHxZs_hP6--9">
          <mxGeometry relative="1" as="geometry" />
        </mxCell>
        <mxCell id="SbwJLex9TxIHxZs_hP6--15" value="Оценки" style="rounded=0;whiteSpace=wrap;html=1;" vertex="1" parent="1">
          <mxGeometry x="-200" y="470" width="120" height="60" as="geometry" />
        </mxCell>
      </root>
    </mxGraphModel>
  </diagram>
</mxfile>
